<?xml version="1.0" encoding="iso-8859-1"?>
<!-- Uploaded to: SVG Repo, www.svgrepo.com, Generator: SVG Repo Mixer Tools -->
<svg height="800px" width="800px" version="1.1" id="Layer_1" xmlns="http://www.w3.org/2000/svg" xmlns:xlink="http://www.w3.org/1999/xlink" 
	 viewBox="0 0 511.999 511.999" xml:space="preserve">
<path style="fill:#7FA339;" d="M206.55,102.589c0,39.152,19.618,73.717,49.555,94.418c29.937-20.701,49.554-55.265,49.554-94.418
	c0-39.152-19.617-73.717-49.554-94.419C226.169,28.871,206.55,63.436,206.55,102.589z"/>
<path style="fill:#FB5E52;" d="M256.001,270.161c-62.27,0-112.749,50.479-112.749,112.749l96.41,120.919h32.679l96.41-120.919
	C368.75,320.64,318.27,270.161,256.001,270.161z"/>
<path style="fill:#FFAA7F;" d="M88.083,268.781V134.504c0-13.136-10.649-23.784-23.784-23.784s-23.784,10.649-23.784,23.784
	l0.133,149.944c0.005,5.427,2.185,13.739,4.845,18.471l94.211,152.563c2.66,4.731,4.837,13.044,4.837,18.471v29.876h95.119V392.547
	L88.083,268.781z"/>
<path style="fill:#FFCE7F;" d="M218.726,342.005l-90.042-90.042c-9.288-9.288-24.347-9.288-33.634,0
	c-9.288,9.288-9.288,24.347,0,33.635l73.179,73.18l-0.001,40.937c0,39.451,31.981,71.433,71.433,71.433v-78.601
	C239.661,376.264,230.241,353.52,218.726,342.005z"/>
<path style="fill:#FFAA7F;" d="M423.918,268.781V134.504c0-13.136,10.648-23.784,23.784-23.784s23.783,10.649,23.783,23.784
	l-0.132,149.944c-0.005,5.427-2.185,13.739-4.845,18.471l-94.211,152.563c-2.659,4.731-4.836,13.044-4.836,18.471v29.876h-95.119
	V392.547L423.918,268.781z"/>
<path style="fill:#FFCE7F;" d="M293.275,342.005l90.042-90.042c9.287-9.288,24.347-9.288,33.634,0
	c9.288,9.288,9.288,24.347,0,33.635l-73.179,73.18v40.937c0,39.451-31.981,71.433-71.433,71.433v-78.601
	C272.34,376.264,281.761,353.52,293.275,342.005z"/>
<path d="M134.462,246.186c-6.035-6.036-14.059-9.36-22.594-9.36c-5.559,0-10.897,1.418-15.614,4.069V134.504
	c0-17.619-14.335-31.954-31.954-31.954s-31.953,14.335-31.953,31.961l0.133,149.943c0.005,6.843,2.539,16.503,5.892,22.468
	c0.056,0.098,0.112,0.194,0.171,0.29l94.113,152.403c1.954,3.564,3.716,10.342,3.716,14.338v29.877c0,4.512,3.658,8.17,8.17,8.17
	s8.17-3.658,8.17-8.17v-29.876c0-6.844-2.53-16.507-5.884-22.475c-0.056-0.097-0.112-0.194-0.171-0.29L52.544,298.786
	c-1.955-3.565-3.72-10.348-3.725-14.346l-0.133-149.936c0-8.609,7.005-15.614,15.614-15.614s15.614,7.005,15.614,15.614v134.278
	c0,0.192,0.015,0.38,0.028,0.569c0.141,7.992,3.245,15.941,9.33,22.026l73.18,73.18c3.191,3.191,8.364,3.191,11.554,0
	c3.191-3.191,3.191-8.364,0-11.555l-73.18-73.18c-2.949-2.949-4.573-6.87-4.573-11.04c0-4.17,1.624-8.092,4.573-11.041
	c6.088-6.087,15.993-6.087,22.081,0l90.042,90.042c10.05,10.052,18.542,30.55,18.542,44.764l-0.002,111.282
	c0,4.512,3.658,8.17,8.17,8.17s8.17-3.658,8.17-8.17l0.001-111.282c0-18.5-10.247-43.238-23.329-56.319L134.462,246.186z"/>
<path d="M447.702,102.55c-17.619,0-31.954,14.335-31.954,31.954v106.391c-4.717-2.65-10.054-4.069-15.613-4.069
	c-8.535,0-16.559,3.325-22.594,9.36L287.5,336.229c-13.082,13.08-23.329,37.818-23.329,56.319v111.282c0,4.512,3.658,8.17,8.17,8.17
	c4.513,0,8.17-3.658,8.17-8.17l-0.001-111.282c0-14.214,8.492-34.714,18.542-44.764l90.042-90.042
	c2.949-2.949,6.87-4.573,11.04-4.573s8.091,1.624,11.041,4.574c2.949,2.949,4.572,6.87,4.572,11.04c0,4.17-1.623,8.091-4.573,11.04
	l-73.179,73.18c-3.191,3.191-3.191,8.364,0,11.555c3.193,3.191,8.365,3.189,11.555,0l73.178-73.18
	c6.036-6.035,9.36-14.059,9.36-22.594V134.504c0-8.609,7.005-15.614,15.614-15.614c8.608,0,15.613,7.005,15.613,15.606
	l-0.132,149.943c-0.004,4-1.77,10.781-3.726,14.346l-94.113,152.404c-0.06,0.095-0.115,0.192-0.171,0.289
	c-3.354,5.969-5.884,15.63-5.884,22.475v29.877c0,4.512,3.657,8.17,8.17,8.17c4.513,0,8.17-3.658,8.17-8.17v-29.876
	c0-3.997,1.762-10.775,3.716-14.338l94.112-152.403c0.06-0.095,0.117-0.191,0.17-0.288c3.354-5.964,5.888-15.624,5.895-22.469
	l0.132-149.951C479.655,116.884,465.322,102.55,447.702,102.55z"/>
<path d="M256.143,286.741c14.582,0.004,28.773,2.736,42.18,8.121c4.188,1.682,8.946-0.349,10.627-4.536s-0.35-8.945-4.537-10.627
	c-13.629-5.474-27.961-8.548-42.676-9.174c-4.686-13.48-1.741-20.724,1.924-29.627c4.014-9.754,8.911-21.677,2.317-41.006
	c30.074-23.221,47.852-59.122,47.852-97.304c0-40.348-19.843-78.156-53.078-101.139c-2.795-1.934-6.498-1.934-9.293,0
	c-33.236,22.983-53.078,60.792-53.078,101.139c0,39.519,19.044,76.593,51.057,99.695c6.113,15.296,3.019,22.902-0.888,32.397
	c-3.671,8.921-8.078,19.659-3.76,36.214c-12.803,1.102-25.279,4.075-37.214,8.895c-4.184,1.69-6.206,6.451-4.516,10.635
	c1.285,3.182,4.345,5.113,7.579,5.113c1.019,0,2.055-0.192,3.057-0.596c13.467-5.438,27.73-8.196,42.39-8.2
	c0.009,0,0.017,0.002,0.026,0.002C256.121,286.742,256.131,286.741,256.143,286.741z M214.72,102.588
	c0-33.059,15.37-64.156,41.385-84.297c26.015,20.14,41.384,51.238,41.384,84.297c0,29.429-12.188,57.296-33.214,77.271V52.77
	c0-4.512-3.657-8.17-8.17-8.17c-4.512,0-8.17,3.658-8.17,8.17v127.088C226.908,159.884,214.72,132.016,214.72,102.588z"/>
</svg>